<svg width="254" height="254" viewBox="0 0 254 254" fill="none" xmlns="http://www.w3.org/2000/svg">
<path d="M136.845 157.187L111.254 141.99C107.969 140.034 105.973 136.616 105.973 132.928V36.3826L113.76 31.8867C121.869 27.2051 131.859 27.2051 139.968 31.8867L202.896 68.2183C211.005 72.8999 216 81.5519 216 90.9151V163.578C216 172.942 211.005 181.594 202.896 186.275L186.123 195.959L186.123 102.014C186.123 97.8937 183.891 94.0721 180.213 91.9077L154.858 76.9347C150.488 74.3523 144.986 74.3075 140.569 76.8154L116.975 90.2208C113.564 92.1317 113.517 96.789 116.881 98.7894L142.471 113.986C145.757 115.942 147.753 119.36 147.753 123.048L147.753 218.112L139.968 222.607C131.859 227.288 121.869 227.288 113.76 222.607L50.8315 186.275C42.7228 181.594 37.7275 172.942 37.7275 163.578V90.9151C37.7275 81.5519 42.7228 72.8999 50.8316 68.2183L67.6026 58.5356V153.962C67.6026 158.082 69.8347 161.904 73.513 164.068L98.8678 179.041C103.238 181.624 108.739 181.668 113.156 179.161L136.751 165.755C140.162 163.844 140.209 159.187 136.845 157.187Z" fill="url(#paint0_linear_2057_94)"/>
<path d="M136.845 157.186L111.254 141.989C107.968 140.033 105.972 136.615 105.972 132.928V36.3823L67.6021 58.5353V153.961C67.6021 158.081 69.8342 161.903 73.5124 164.068L98.8672 179.04C103.237 181.623 108.739 181.668 113.156 179.16L136.75 165.754C140.161 163.844 140.208 159.186 136.845 157.186Z" fill="white"/>
<path d="M147.752 218.112L147.752 123.047C147.752 119.359 145.756 115.941 142.471 113.986L116.88 98.7886C113.516 96.7882 113.563 92.1309 116.974 90.22L140.569 76.8146C144.986 74.3067 150.487 74.3515 154.857 76.9339L180.212 91.9069C183.89 94.0713 186.122 97.8929 186.122 102.013L186.122 195.959L147.752 218.112Z" fill="white"/>
<defs>
<linearGradient id="paint0_linear_2057_94" x1="62.9244" y1="43.9397" x2="168.688" y2="196.663" gradientUnits="userSpaceOnUse">
<stop stop-color="#FE198E"/>
<stop offset="0.674726" stop-color="#477EFF"/>
<stop offset="1" stop-color="#00C3FF"/>
</linearGradient>
</defs>
</svg>
