<svg width="255" height="254" viewBox="0 0 255 254" fill="none" xmlns="http://www.w3.org/2000/svg">
<path fill-rule="evenodd" clip-rule="evenodd" d="M109.927 100.934L121.503 121.541C123.023 124.251 121.14 127.435 118.032 127.395L96.4634 127.246C92.7424 127.219 89.2491 125.335 87.173 122.292L83.4655 115.811L75.1726 101.133C73.5009 98.1847 73.4832 94.6712 75.1206 91.8385L103.413 42.8931L44.1954 42.8931C28.7339 42.8931 19.0958 59.66 26.8773 73.0207L119.654 232.317C123.09 238.216 131.612 238.216 135.048 232.317L227.825 73.0207C235.606 59.66 225.968 42.8931 210.507 42.8931L138.629 42.8931L109.892 92.608C108.427 95.1431 108.442 98.2858 109.927 100.934ZM112.336 154.719C110.277 158.28 110.267 162.666 112.31 166.237L121.528 182.351C123.744 186.226 129.333 186.238 131.567 182.374L177.35 103.169C178.988 100.336 178.97 96.8229 177.298 93.8747L165.796 73.5158C163.814 70.0058 160.045 67.7911 156.007 67.762L134.439 67.613C131.331 67.5727 129.448 70.7562 130.968 73.4667L142.544 94.0732C144.029 96.7217 144.044 99.8645 142.579 102.4L112.336 154.719Z" fill="url(#paint0_linear_2060_2)"/>
<mask id="mask0_2060_2" style="mask-type:alpha" maskUnits="userSpaceOnUse" x="24" y="42" width="207" height="195">
<path d="M135.048 232.317C131.613 238.216 123.09 238.216 119.654 232.317L26.8775 73.0205C19.096 59.6598 28.7341 42.8929 44.1957 42.8929L210.507 42.8929C225.969 42.8929 235.607 59.6599 227.825 73.0205L135.048 232.317Z" fill="url(#paint1_linear_2060_2)"/>
</mask>
<g mask="url(#mask0_2060_2)">
<path d="M121.503 121.541L109.927 100.934C108.443 98.2857 108.427 95.143 109.892 92.6079L164.03 -1.04965C165.864 -4.22107 163.35 -8.28411 159.546 -8.31603L138.613 -8.46758C135.206 -8.48895 132.124 -6.7765 130.487 -3.94384L75.1208 91.8383C73.4834 94.6711 73.5011 98.1845 75.1728 101.133L83.4657 115.811L87.1733 122.292C89.2493 125.335 92.7427 127.219 96.4637 127.245L118.032 127.394C121.14 127.435 123.023 124.251 121.503 121.541Z" fill="white"/>
<path d="M112.31 166.236C110.268 162.666 110.278 158.28 112.336 154.719L142.579 102.399C144.044 99.8643 144.029 96.7216 142.545 94.073L130.969 73.4665C129.448 70.756 131.331 67.5726 134.439 67.6128L156.008 67.7618C160.045 67.7909 163.814 70.0056 165.796 73.5157L177.299 93.8745C178.97 96.8227 178.988 100.336 177.351 103.169L131.567 182.374C129.333 186.238 123.744 186.225 121.528 182.351L112.31 166.236Z" fill="white"/>
</g>
<defs>
<linearGradient id="paint0_linear_2060_2" x1="93.9493" y1="10.6042" x2="151.965" y2="211.344" gradientUnits="userSpaceOnUse">
<stop stop-color="#FE198E"/>
<stop offset="0.641999" stop-color="#477EFF"/>
<stop offset="1" stop-color="#00C3FF"/>
</linearGradient>
<linearGradient id="paint1_linear_2060_2" x1="93.9493" y1="10.6042" x2="151.965" y2="211.344" gradientUnits="userSpaceOnUse">
<stop stop-color="#FE198E"/>
<stop offset="0.641999" stop-color="#477EFF"/>
<stop offset="1" stop-color="#00C3FF"/>
</linearGradient>
</defs>
</svg>
